<mxfile host="app.diagrams.net" modified="2021-04-13T14:01:53.618Z" agent="5.0 (Macintosh; Intel Mac OS X 11_1_0) AppleWebKit/537.36 (KHTML, like Gecko) Chrome/89.0.4389.114 Safari/537.36" etag="VPBL_5dMpdHac3dRMdjG" version="14.6.0" type="github">
  <diagram id="1jS8HdlLek9ythfzZxmd" name="Page-1">
    <mxGraphModel dx="933" dy="551" grid="1" gridSize="10" guides="1" tooltips="1" connect="1" arrows="1" fold="1" page="1" pageScale="1" pageWidth="827" pageHeight="1169" math="0" shadow="0">
      <root>
        <mxCell id="0" />
        <mxCell id="1" parent="0" />
        <mxCell id="azdFt4TTLsHJrj7l6tKi-13" style="edgeStyle=orthogonalEdgeStyle;rounded=1;orthogonalLoop=1;jettySize=auto;html=1;strokeWidth=6;" parent="1" source="azdFt4TTLsHJrj7l6tKi-1" target="azdFt4TTLsHJrj7l6tKi-14" edge="1">
          <mxGeometry relative="1" as="geometry" />
        </mxCell>
        <mxCell id="FuPFpe4h8FPMtTvP8igd-10" value="" style="edgeStyle=orthogonalEdgeStyle;rounded=1;orthogonalLoop=1;jettySize=auto;html=1;strokeWidth=6;strokeColor=#FF66FF;" edge="1" parent="1" source="azdFt4TTLsHJrj7l6tKi-1" target="azdFt4TTLsHJrj7l6tKi-14">
          <mxGeometry relative="1" as="geometry" />
        </mxCell>
        <mxCell id="azdFt4TTLsHJrj7l6tKi-1" value="共用有限变量集？？？&lt;br&gt;&lt;br&gt;主题：颜色&amp;nbsp;&lt;br&gt;&lt;br&gt;语义化的变量？？？设计逻辑 原则" style="ellipse;whiteSpace=wrap;html=1;" parent="1" vertex="1">
          <mxGeometry x="70" y="255" width="190" height="130" as="geometry" />
        </mxCell>
        <mxCell id="azdFt4TTLsHJrj7l6tKi-5" value="" style="edgeStyle=orthogonalEdgeStyle;rounded=1;orthogonalLoop=1;jettySize=auto;html=1;fillColor=#f8cecc;strokeColor=#b85450;strokeWidth=6;entryX=0.868;entryY=-0.011;entryDx=0;entryDy=0;entryPerimeter=0;" parent="1" source="azdFt4TTLsHJrj7l6tKi-2" target="azdFt4TTLsHJrj7l6tKi-3" edge="1">
          <mxGeometry relative="1" as="geometry">
            <mxPoint x="690" y="380" as="targetPoint" />
          </mxGeometry>
        </mxCell>
        <mxCell id="azdFt4TTLsHJrj7l6tKi-2" value="业务组件，&lt;br&gt;颗粒度？" style="ellipse;whiteSpace=wrap;html=1;aspect=fixed;" parent="1" vertex="1">
          <mxGeometry x="590" y="50" width="120" height="120" as="geometry" />
        </mxCell>
        <mxCell id="azdFt4TTLsHJrj7l6tKi-3" value="应用的页面" style="shape=parallelogram;perimeter=parallelogramPerimeter;whiteSpace=wrap;html=1;fixedSize=1;" parent="1" vertex="1">
          <mxGeometry x="500" y="390" width="220" height="90" as="geometry" />
        </mxCell>
        <mxCell id="azdFt4TTLsHJrj7l6tKi-12" style="edgeStyle=orthogonalEdgeStyle;rounded=1;orthogonalLoop=1;jettySize=auto;html=1;strokeWidth=6;" parent="1" source="azdFt4TTLsHJrj7l6tKi-10" target="azdFt4TTLsHJrj7l6tKi-2" edge="1">
          <mxGeometry relative="1" as="geometry">
            <Array as="points">
              <mxPoint x="390" y="100" />
              <mxPoint x="390" y="155" />
            </Array>
          </mxGeometry>
        </mxCell>
        <mxCell id="azdFt4TTLsHJrj7l6tKi-10" value="业务组件设计稿" style="rhombus;whiteSpace=wrap;html=1;" parent="1" vertex="1">
          <mxGeometry x="120" y="40" width="120" height="120" as="geometry" />
        </mxCell>
        <mxCell id="azdFt4TTLsHJrj7l6tKi-16" style="edgeStyle=orthogonalEdgeStyle;rounded=1;orthogonalLoop=1;jettySize=auto;html=1;strokeWidth=6;" parent="1" source="azdFt4TTLsHJrj7l6tKi-14" target="azdFt4TTLsHJrj7l6tKi-3" edge="1">
          <mxGeometry relative="1" as="geometry">
            <Array as="points">
              <mxPoint x="570" y="320" />
            </Array>
          </mxGeometry>
        </mxCell>
        <mxCell id="azdFt4TTLsHJrj7l6tKi-17" style="edgeStyle=orthogonalEdgeStyle;rounded=1;orthogonalLoop=1;jettySize=auto;html=1;entryX=-0.025;entryY=0.433;entryDx=0;entryDy=0;entryPerimeter=0;strokeWidth=6;startArrow=none;" parent="1" source="FuPFpe4h8FPMtTvP8igd-7" target="azdFt4TTLsHJrj7l6tKi-2" edge="1">
          <mxGeometry relative="1" as="geometry" />
        </mxCell>
        <mxCell id="azdFt4TTLsHJrj7l6tKi-14" value="自然布局类的组件&lt;br&gt;Paragraph" style="ellipse;whiteSpace=wrap;html=1;aspect=fixed;fillColor=#f8cecc;strokeColor=#b85450;" parent="1" vertex="1">
          <mxGeometry x="334" y="280" width="80" height="80" as="geometry" />
        </mxCell>
        <mxCell id="FuPFpe4h8FPMtTvP8igd-1" value="业务组件开发者" style="shape=actor;whiteSpace=wrap;html=1;verticalAlign=bottom;" vertex="1" parent="1">
          <mxGeometry x="750" y="100" width="40" height="60" as="geometry" />
        </mxCell>
        <mxCell id="FuPFpe4h8FPMtTvP8igd-2" value="应用开发者" style="shape=actor;whiteSpace=wrap;html=1;verticalAlign=bottom;" vertex="1" parent="1">
          <mxGeometry x="750" y="440" width="40" height="60" as="geometry" />
        </mxCell>
        <mxCell id="FuPFpe4h8FPMtTvP8igd-7" value="theme" style="shape=display;whiteSpace=wrap;html=1;fillColor=#dae8fc;strokeColor=#6c8ebf;" vertex="1" parent="1">
          <mxGeometry x="480" y="85" width="60" height="30" as="geometry" />
        </mxCell>
        <mxCell id="FuPFpe4h8FPMtTvP8igd-8" value="" style="edgeStyle=orthogonalEdgeStyle;rounded=1;orthogonalLoop=1;jettySize=auto;html=1;entryX=-0.008;entryY=0.375;entryDx=0;entryDy=0;entryPerimeter=0;strokeWidth=6;endArrow=none;" edge="1" parent="1" source="azdFt4TTLsHJrj7l6tKi-14" target="FuPFpe4h8FPMtTvP8igd-7">
          <mxGeometry relative="1" as="geometry">
            <mxPoint x="414" y="320" as="sourcePoint" />
            <mxPoint x="589.04" y="105" as="targetPoint" />
          </mxGeometry>
        </mxCell>
        <mxCell id="FuPFpe4h8FPMtTvP8igd-9" value="theme" style="shape=display;whiteSpace=wrap;html=1;fillColor=#dae8fc;strokeColor=#6c8ebf;" vertex="1" parent="1">
          <mxGeometry x="450" y="305" width="60" height="30" as="geometry" />
        </mxCell>
      </root>
    </mxGraphModel>
  </diagram>
</mxfile>
